<svg width="388.05" height="73.41486486486487" viewBox="0 0 370.00000000000006 70.00000000000001" class="css-1j8o68f"><defs id="SvgjsDefs1883"></defs><g id="SvgjsG1884" featurekey="Df7oLJ-0" transform="matrix(0.8750000000000001,0,0,0.8750000000000001,-8.750000000000002,-8.750000000000002)" fill="#ffffff"><path xmlns="http://www.w3.org/2000/svg" d="M50,10H10v40c0,22.09,17.91,40,40,40h40V50C90,27.91,72.09,10,50,10z M83.333,83.333H50  c-18.379,0-33.333-14.954-33.333-33.333V16.667H50c18.379,0,33.333,14.955,33.333,33.333V83.333z"></path><path xmlns="http://www.w3.org/2000/svg" d="M50,23.333c-14.727,0-26.667,11.94-26.667,26.667S35.273,76.667,50,76.667S76.667,64.727,76.667,50S64.727,23.333,50,23.333  z M50,70c-11.048,0-20-8.955-20-20s8.952-20,20-20c11.045,0,20,8.955,20,20S61.045,70,50,70z"></path><path xmlns="http://www.w3.org/2000/svg" d="M50,36.667c-7.363,0-13.333,5.97-13.333,13.333S42.637,63.333,50,63.333S63.333,57.363,63.333,50S57.363,36.667,50,36.667z   M50,56.667c-3.682,0-6.667-2.985-6.667-6.667s2.985-6.667,6.667-6.667s6.667,2.985,6.667,6.667S53.682,56.667,50,56.667z"></path></g><g id="SvgjsG1885" featurekey="Ua4uQk-0" transform="matrix(2.8321282950067794,0,0,2.8321282950067794,88.58393585249661,-1.5962708364056404)" fill="#eee40a"><path d="M5.96 12.879999999999999 c-0.28 -0.72 -0.7 -0.96 -1.16 -0.96 c-0.42 0 -0.84 0.24 -0.84 0.64 c0 0.38 0.24 0.6 0.7 0.76 l1.32 0.46 c1.48 0.54 2.98 1.08 2.98 3.16 c0 2.1 -2.1 3.3 -4.26 3.3 c-1.94 0 -3.76 -1.14 -4.2 -2.96 l2.48 -0.78 c0.26 0.58 0.72 1.24 1.72 1.24 c0.68 0 1.12 -0.44 1.12 -0.84 c0 -0.2 -0.16 -0.46 -0.66 -0.66 l-1.22 -0.44 c-2.08 -0.76 -3.06 -1.82 -3.06 -3.3 c0 -1.94 1.8 -3.08 3.78 -3.08 c2.02 0 3.36 1.1 3.96 2.76 z M14.38 20.16 c-1.94 0 -3.92 -1.3 -3.92 -4.6 l0 -5.96 l3.16 0 l0 5.74 c0 1.58 0.54 2.08 1.54 2.08 c1.42 0 2.24 -1.38 2.44 -1.98 l0 -5.84 l3.16 0 l0 10.4 l-3.16 0 l0 -1.8 c-0.2 0.5 -1.26 1.96 -3.22 1.96 z M27.740000000000002 12.879999999999999 c-0.28 -0.72 -0.7 -0.96 -1.16 -0.96 c-0.42 0 -0.84 0.24 -0.84 0.64 c0 0.38 0.24 0.6 0.7 0.76 l1.32 0.46 c1.48 0.54 2.98 1.08 2.98 3.16 c0 2.1 -2.1 3.3 -4.26 3.3 c-1.94 0 -3.76 -1.14 -4.2 -2.96 l2.48 -0.78 c0.26 0.58 0.72 1.24 1.72 1.24 c0.68 0 1.12 -0.44 1.12 -0.84 c0 -0.2 -0.16 -0.46 -0.66 -0.66 l-1.22 -0.44 c-2.08 -0.76 -3.06 -1.82 -3.06 -3.3 c0 -1.94 1.8 -3.08 3.78 -3.08 c2.02 0 3.36 1.1 3.96 2.76 z M38.74 9.44 c1.94 0 3.92 1.3 3.92 4.6 l0 5.96 l-3.16 0 l0 -5.74 c0 -1.58 -0.54 -2.08 -1.54 -2.08 c-1.42 0 -2.24 1.38 -2.44 1.98 l0 5.84 l-3.16 0 l0 -14.14 l3.16 0 l0 5.54 c0.2 -0.5 1.26 -1.96 3.22 -1.96 z M47.74 5.859999999999999 l0 2.66 l-3.16 0 l0 -2.66 l3.16 0 z M47.74 9.6 l0 10.4 l-3.16 0 l0 -10.4 l3.16 0 z M60.84 17.36 c0.56 0 0.96 -0.08 1.4 -0.2 l0 2.62 c-0.44 0.2 -1.16 0.34 -2.22 0.34 c-1.74 0 -3.2 -0.58 -3.2 -3.78 l0 -4.14 l-1.46 0 l0 -2.6 l1.46 0 l0 -2.44 l3.16 0 l0 2.44 l2.22 0 l0 2.6 l-2.22 0 l0 4.14 c0 0.46 0.12 1.02 0.86 1.02 z M67.08000000000001 5.859999999999999 l0 2.66 l-3.16 0 l0 -2.66 l3.16 0 z M67.08000000000001 9.6 l0 10.4 l-3.16 0 l0 -10.4 l3.16 0 z M83.02000000000001 9.44 c2.22 0 4.18 1.44 4.18 4.96 l0 5.6 l-3.16 0 l0 -5.5 c0 -1.32 -0.56 -2.32 -2.02 -2.32 c-1.22 0 -2.04 1.08 -2.28 2.04 l0 5.78 l-3.16 0 l0 -5.5 c0 -1.32 -0.82 -2.32 -2.02 -2.32 c-1.3 0 -2.08 0.88 -2.28 2.04 l0 5.78 l-3.16 0 l0 -10.4 l3.16 0 l0 1.9 c0.04 -0.48 1.06 -2.06 3.1 -2.06 c1.5 0 2.94 0.8 3.8 2.26 c0.24 -0.56 1.44 -2.26 3.84 -2.26 z M94.28 9.42 c2.36 0 5.66 1.78 5 6.48 l-7.26 0 c0.36 1.08 1.3 1.64 2.56 1.64 c1.28 0 1.68 -0.28 2.4 -0.58 l1.74 1.68 c-0.92 0.9 -2.16 1.56 -4.26 1.56 c-2.58 0 -5.66 -1.78 -5.66 -5.36 c0 -3.64 3.12 -5.42 5.48 -5.42 z M94.28 12.120000000000001 c-0.9 0 -1.82 0.52 -2.22 1.56 l4.42 0 c-0.32 -1.04 -1.3 -1.56 -2.2 -1.56 z"></path></g></svg>