<svg width="555.75" height="128.87611879576892" viewBox="0 0 409.6666666666667 95" class="css-1j8o68f"><defs id="SvgjsDefs1549"></defs><g id="SvgjsG1550" featurekey="symbolContainer" transform="matrix(1,0,0,1,0,0)" fill="#f08a5d"><rect width="98" height="95" rx="8"></rect></g><g id="SvgjsG1551" featurekey="symbolFeature-0" transform="matrix(0.7979603196892542,0,0,0.7979603196892542,13.297132858013708,11.579429719770777)" fill="#ffffff"><path xmlns="http://www.w3.org/2000/svg" d="M35.1,44c-0.6,0.7-8.6,9.2-9,8.8l0,0c-0.5-0.4,6.7-9.5,7.3-10.3L64.8,4.8c0.6-0.7,2.1-0.6,2.5-0.2l0,0  c0.5,0.4,0.9,1.8,0.3,2.6L35.1,44z"></path><path xmlns="http://www.w3.org/2000/svg" d="M43.9,43c-0.7,0.7-9.7,8-10.1,7.6l0,0c-0.4-0.5,7.9-8.6,8.6-9.2L78.6,8c0.7-0.7,2.1-0.3,2.5,0.2l0,0  c0.4,0.5,0.7,1.9-0.1,2.6L43.9,43z"></path><path xmlns="http://www.w3.org/2000/svg" fill-rule="evenodd" clip-rule="evenodd" d="M21.1,60.7c-7,0-12.7,2.3-12.7,5.2v13.3l0,0c0,3.6,5.7,6.6,12.7,6.6  c7,0,12.7-2.9,12.7-6.6l0,0V65.9C33.8,63,28.1,60.7,21.1,60.7z M21.1,69.7c-5.1,0-9.3-1.7-9.3-3.8c0-2.1,4.2-3.8,9.3-3.8  c5.1,0,9.3,1.7,9.3,3.8C30.4,68,26.3,69.7,21.1,69.7z"></path><ellipse xmlns="http://www.w3.org/2000/svg" fill-rule="evenodd" clip-rule="evenodd" cx="21.1" cy="65.9" rx="5.5" ry="2.2"></ellipse></g><g id="SvgjsG1552" featurekey="nameFeature-0" transform="matrix(1.2532943672085182,0,0,1.2532943672085182,115.59367591457553,15.461786057521978)" fill="#f08a5d"><path d="M13.4 40.4 c-3.8 0 -7.4 -1.2 -10.52 -3.52 c-0.56 -0.4 -0.96 -1.08 -0.96 -1.88 c0 -1.28 1.04 -2.28 2.32 -2.28 c0.68 0 1.12 0.2 1.44 0.44 c2.32 1.84 4.8 2.88 7.84 2.88 s4.96 -1.44 4.96 -3.52 l0 -0.08 c0 -2 -1.12 -3.08 -6.32 -4.28 c-5.96 -1.44 -9.32 -3.2 -9.32 -8.36 l0 -0.08 c0 -4.8 4 -8.12 9.56 -8.12 c3.52 0 6.36 0.92 8.88 2.6 c0.56 0.32 1.08 1 1.08 1.96 c0 1.28 -1.04 2.28 -2.32 2.28 c-0.48 0 -0.88 -0.12 -1.28 -0.36 c-2.16 -1.4 -4.24 -2.12 -6.44 -2.12 c-2.88 0 -4.56 1.48 -4.56 3.32 l0 0.08 c0 2.16 1.28 3.12 6.68 4.4 c5.92 1.44 8.96 3.56 8.96 8.2 l0 0.08 c0 5.24 -4.12 8.36 -10 8.36 z M40.68 40.44 c-7.28 0 -11.92 -4.2 -11.92 -12.32 l0 -13.88 c0 -1.36 1.08 -2.44 2.48 -2.44 c1.36 0 2.44 1.08 2.44 2.44 l0 13.68 c0 5.2 2.68 7.96 7.08 7.96 c4.36 0 7.04 -2.6 7.04 -7.76 l0 -13.88 c0 -1.36 1.08 -2.44 2.48 -2.44 c1.36 0 2.44 1.08 2.44 2.44 l0 13.64 c0 8.36 -4.72 12.56 -12.04 12.56 z M69.28 40.4 c-3.8 0 -7.4 -1.2 -10.52 -3.52 c-0.56 -0.4 -0.96 -1.08 -0.96 -1.88 c0 -1.28 1.04 -2.28 2.32 -2.28 c0.68 0 1.12 0.2 1.44 0.44 c2.32 1.84 4.8 2.88 7.84 2.88 s4.96 -1.44 4.96 -3.52 l0 -0.08 c0 -2 -1.12 -3.08 -6.32 -4.28 c-5.96 -1.44 -9.32 -3.2 -9.32 -8.36 l0 -0.08 c0 -4.8 4 -8.12 9.56 -8.12 c3.52 0 6.36 0.92 8.88 2.6 c0.56 0.32 1.08 1 1.08 1.96 c0 1.28 -1.04 2.28 -2.32 2.28 c-0.48 0 -0.88 -0.12 -1.28 -0.36 c-2.16 -1.4 -4.24 -2.12 -6.44 -2.12 c-2.88 0 -4.56 1.48 -4.56 3.32 l0 0.08 c0 2.16 1.28 3.12 6.68 4.4 c5.92 1.44 8.96 3.56 8.96 8.2 l0 0.08 c0 5.24 -4.12 8.36 -10 8.36 z M85.08 37.76 l0 -23.52 c0 -1.36 1.08 -2.44 2.48 -2.44 c1.36 0 2.44 1.08 2.44 2.44 l0 9.4 l13.36 0 l0 -9.4 c0 -1.36 1.08 -2.44 2.44 -2.44 c1.4 0 2.48 1.08 2.48 2.44 l0 23.52 c0 1.36 -1.08 2.44 -2.48 2.44 c-1.36 0 -2.44 -1.08 -2.44 -2.44 l0 -9.56 l-13.36 0 l0 9.56 c0 1.36 -1.08 2.44 -2.44 2.44 c-1.4 0 -2.48 -1.08 -2.48 -2.44 z M115.76 37.76 l0 -23.52 c0 -1.36 1.08 -2.44 2.48 -2.44 c1.36 0 2.44 1.08 2.44 2.44 l0 23.52 c0 1.36 -1.08 2.44 -2.44 2.44 c-1.4 0 -2.48 -1.08 -2.48 -2.44 z M147.04 37.76 l0 -21.2 l-6.8 0 c-1.28 0 -2.28 -1.04 -2.28 -2.28 s1 -2.28 2.28 -2.28 l18.6 0 c1.24 0 2.24 1.04 2.24 2.28 s-1 2.28 -2.24 2.28 l-6.84 0 l0 21.2 c0 1.36 -1.12 2.44 -2.48 2.44 s-2.48 -1.08 -2.48 -2.44 z M166.36 37.76 l0 -23.52 c0 -1.36 1.08 -2.44 2.48 -2.44 c1.36 0 2.44 1.08 2.44 2.44 l0 23.52 c0 1.36 -1.08 2.44 -2.44 2.44 c-1.4 0 -2.48 -1.08 -2.48 -2.44 z M178.76000000000002 37.8 l0 -23.48 c0 -1.36 1.08 -2.48 2.48 -2.48 l0.52 0 c1.08 0 1.8 0.56 2.28 1.32 l8.48 13.28 l8.52 -13.32 c0.52 -0.84 1.24 -1.28 2.24 -1.28 l0.52 0 c1.4 0 2.48 1.12 2.48 2.48 l0 23.44 c0 1.36 -1.08 2.44 -2.48 2.44 c-1.32 0 -2.44 -1.12 -2.44 -2.44 l0 -16.8 l-6.84 10.28 c-0.52 0.8 -1.16 1.28 -2.08 1.28 c-0.88 0 -1.52 -0.48 -2.04 -1.28 l-6.8 -10.2 l0 16.76 c0 1.36 -1.08 2.4 -2.44 2.4 s-2.4 -1.04 -2.4 -2.4 z M215.96000000000004 40 c-1.4 0 -2.48 -1.08 -2.48 -2.48 l0 -23.04 c0 -1.4 1.08 -2.48 2.48 -2.48 l16.28 0 c1.2 0 2.2 1 2.2 2.2 c0 1.24 -1 2.2 -2.2 2.2 l-13.84 0 l0 7.28 l12.04 0 c1.2 0 2.2 1 2.2 2.24 c0 1.2 -1 2.16 -2.2 2.16 l-12.04 0 l0 7.52 l14.04 0 c1.2 0 2.2 1 2.2 2.2 c0 1.24 -1 2.2 -2.2 2.2 l-16.48 0 z"></path></g></svg>