<svg width="388.05" height="48.33391432774136" viewBox="0 0 370.00000000000006 46.0856804568079" class="css-1j8o68f"><defs id="SvgjsDefs1831"></defs><g id="SvgjsG1832" featurekey="symbolFeature-0" transform="matrix(0.7773976618691627,0,0,0.7773976618691627,-3.8698856883027717,-15.827038416749083)" fill="#e58339"><g xmlns="http://www.w3.org/2000/svg"><g><polygon fill="#e58339" points="75.075,59.365 4.978,24.866 6.398,22.954 75.767,58.772   "></polygon></g><g><g><path fill="#e58339" d="M95.021,63.271c0.041-2.919-4.577-5.272-10.516-5.357l-0.32-0.003c-5.76,0-10.305,2.222-10.346,5.058     c-0.001,0.082,0.015,0.162,0.021,0.243L73.709,73.96l-0.011,0.073c-0.013,0.081-0.024,0.161-0.024,0.242     c-0.021,1.443,1.098,2.794,3.15,3.803c1.967,0.966,4.585,1.52,7.371,1.56l0.318,0.003l0,0c5.764,0,10.311-2.224,10.351-5.062     c0.003-0.202-0.022-0.416,0.016-0.654L95.022,63.9C94.981,63.693,95.019,63.484,95.021,63.271z M84.678,67.608l-0.311-0.003     c-5.352-0.075-9.843-2.194-9.81-4.627c0.001-0.053,0.015-0.104,0.02-0.155c0.215-2.326,4.449-4.194,9.608-4.194l0.31,0.002     c5.236,0.075,9.636,2.107,9.792,4.473c0.004,0.053,0.017,0.104,0.016,0.157C94.269,65.658,89.95,67.608,84.678,67.608z"></path></g><polygon fill="#e58339" points="82.11,60.985 81.077,63.484 87.127,64.569 87.526,61.701   "></polygon></g><g><polygon fill="#e58339" points="73.213,72.073 24.239,20.359 22.659,21.729 71.845,72.232   "></polygon></g></g></g><g id="SvgjsG1833" featurekey="nameFeature-0" transform="matrix(1.3649409128208976,0,0,1.3649409128208976,88.16064762891085,-9.823981855216628)" fill="#ffffff"><path d="M10.918 33.7891 l-0.019531 -0.039063 c1.7383 0 3.1836 -1.4453 3.1836 -3.1836 c0 -1.3477 -0.52734 -2.207 -1.6016 -2.5977 c-2.2656 -0.83984 -1.7188 -0.64453 -3.9258 -1.4063 c-2.3242 -0.80078 -4.4727 -2.3828 -5.918 -4.3555 c-0.85938 -1.1719 -1.2891 -2.6172 -1.2891 -4.3555 c0 -2.6172 0.9375 -4.8633 2.8125 -6.7383 s4.1211 -2.8125 6.7578 -2.8125 c2.6172 0 4.8633 0.9375 6.7383 2.8125 s2.8125 4.1211 2.8125 6.7383 l-6.3477 0 c0 -1.7188 -1.4453 -3.1641 -3.1641 -3.1641 c-1.7383 0 -3.1836 1.4453 -3.1836 3.1836 c0 1.1328 0.44922 1.9922 1.3672 2.5781 c1.875 1.2109 1.6602 0.97656 3.9063 1.6406 c2.4219 0.70313 4.6094 2.207 6.1133 4.1406 c0.87891 1.1328 1.3281 2.5977 1.3281 4.375 c0 2.6367 -0.9375 4.8828 -2.8125 6.7578 s-4.1211 2.8125 -6.7383 2.8125 c-2.6367 0 -4.8828 -0.9375 -6.7578 -2.8125 s-2.8125 -4.1211 -2.8125 -6.7578 l6.3672 0 c0 1.7578 1.4258 3.1836 3.1836 3.1836 z M42.34340625 8.515999999999998 l6.3477 0 l0 12.656 l0 6.3281 c0 3.4961 -1.2305 6.4844 -3.7109 8.9648 s-5.4688 3.7109 -8.9453 3.7109 c-3.4961 0 -6.4844 -1.2305 -8.9648 -3.7109 s-3.7109 -5.4688 -3.7109 -8.9648 l0 -6.3281 l0 -12.656 l6.3477 0 l0 12.656 l0 5.6641 l0 0.64453 c0 1.7383 0.625 3.2227 1.8555 4.4531 s2.7148 1.8555 4.4531 1.8555 c1.7188 0 3.2031 -0.625 4.4531 -1.8555 s1.875 -2.7148 1.875 -4.4531 l0 -0.64453 l0 -5.6641 l0 -12.656 z M61.152375 33.7891 l-0.019531 -0.039063 c1.7383 0 3.1836 -1.4453 3.1836 -3.1836 c0 -1.3477 -0.52734 -2.207 -1.6016 -2.5977 c-2.2656 -0.83984 -1.7188 -0.64453 -3.9258 -1.4063 c-2.3242 -0.80078 -4.4727 -2.3828 -5.918 -4.3555 c-0.85938 -1.1719 -1.2891 -2.6172 -1.2891 -4.3555 c0 -2.6172 0.9375 -4.8633 2.8125 -6.7383 s4.1211 -2.8125 6.7578 -2.8125 c2.6172 0 4.8633 0.9375 6.7383 2.8125 s2.8125 4.1211 2.8125 6.7383 l-6.3477 0 c0 -1.7188 -1.4453 -3.1641 -3.1641 -3.1641 c-1.7383 0 -3.1836 1.4453 -3.1836 3.1836 c0 1.1328 0.44922 1.9922 1.3672 2.5781 c1.875 1.2109 1.6602 0.97656 3.9063 1.6406 c2.4219 0.70313 4.6094 2.207 6.1133 4.1406 c0.87891 1.1328 1.3281 2.5977 1.3281 4.375 c0 2.6367 -0.9375 4.8828 -2.8125 6.7578 s-4.1211 2.8125 -6.7383 2.8125 c-2.6367 0 -4.8828 -0.9375 -6.7578 -2.8125 s-2.8125 -4.1211 -2.8125 -6.7578 l6.3672 0 c0 1.7578 1.4258 3.1836 3.1836 3.1836 z M73.61328125 8.515999999999998 l6.3086 0 l0 12.598 l9.4336 0 l0 -12.598 l6.3086 0 l0 31.484 l-6.3086 0 l0 -12.598 l-9.4336 0 l0 12.598 l-6.3086 0 l0 -31.484 z M98.7890625 40 l0 -31.484 l6.3086 0 l0 31.484 l-6.3086 0 z M127.42190625 8.515999999999998 l6.3086 0 l7.8711 0 l0 6.2891 l-7.8711 0 l0 25.195 l-6.3086 0 l0 -25.195 l-7.8711 0 l0 -6.2891 l7.8711 0 z M144.3359375 40 l0 -31.484 l6.3086 0 l0 31.484 l-6.3086 0 z M153.76953125 7.93 l15.352 21.055 l15.352 -21.055 l0 32.07 l-6.3086 0 l0 -12.988 l-9.043 12.48 l-9.043 -12.48 l0 12.988 l-6.3086 0 l0 -32.07 z M187.59765625 8.515999999999998 l18.887 0 l0 6.2891 l-12.578 0 l0 6.3086 l9.4336 0 l0 6.2891 l-9.4336 0 l0 6.2891 l12.578 0 l0 6.3086 l-12.578 0 l-6.3086 0 l0 -31.484 z"></path></g></svg>