<svg xmlns:mydata="http://www.w3.org/2000/svg" mydata:contrastcolor="271d3b" mydata:template="Contrast" mydata:presentation="2.5" mydata:layouttype="undefined" mydata:specialfontid="undefined" mydata:id1="190" mydata:id2="189" mydata:companyname="SUSHI TIME" mydata:companytagline="" version="1.1" xmlns="http://www.w3.org/2000/svg" xmlns:xlink="http://www.w3.org/1999/xlink" viewBox="0 45 550 380"><defs><linearGradient x1="77.84661" y1="235" x2="472.15339" y2="235" gradientUnits="userSpaceOnUse" id="color-18404888834"><stop offset="0" stop-color="#8360c3"></stop><stop offset="1" stop-color="#2ebf91"></stop></linearGradient></defs><g fill="url(#color-18404888834)" fill-rule="none" stroke="none" stroke-width="1" stroke-linecap="butt" stroke-linejoin="miter" stroke-miterlimit="10" stroke-dasharray="" stroke-dashoffset="0" font-family="none" font-weight="none" font-size="none" text-anchor="none" style="mix-blend-mode: normal"><g data-paper-data="{&quot;isGlobalGroup&quot;:true,&quot;bounds&quot;:{&quot;x&quot;:77.84660760480324,&quot;y&quot;:184.5797416439728,&quot;width&quot;:394.3067847903935,&quot;height&quot;:100.84051671205441}}"><g data-paper-data="{&quot;stacked&quot;:true,&quot;isPrimaryText&quot;:true}" fill-rule="nonzero"><path d="M296.6146,216.17426c0,4.25785 -1.5787,7.51295 -4.73609,9.7653c-3.15739,2.25234 -7.79064,3.37851 -13.89973,3.37851c-5.57429,0 -9.94528,-0.98733 -13.11296,-2.96199c-3.16768,-1.97466 -5.20404,-4.9675 -6.1091,-8.97852l8.79339,-1.45014c0.59651,2.30377 1.75868,3.97503 3.4865,5.01378c1.72782,1.03875 4.12415,1.55813 7.18899,1.55813c6.35593,0 9.53389,-1.93352 9.53389,-5.80056c0,-1.23416 -0.36511,-2.25234 -1.09532,-3.05455c-0.73021,-0.8022 -1.75868,-1.47071 -3.0854,-2.00551c-1.32672,-0.5348 -3.87218,-1.18274 -7.63637,-1.9438c-3.24996,-0.76107 -5.51258,-1.373 -6.78788,-1.83581c-1.2753,-0.46281 -2.42718,-1.0079 -3.45565,-1.63526c-1.02847,-0.62737 -1.90266,-1.38329 -2.62259,-2.26777c-0.71993,-0.88448 -1.28044,-1.92323 -1.68154,-3.11626c-0.4011,-1.19302 -0.60165,-2.56088 -0.60165,-4.10358c0,-3.92874 1.47585,-6.93701 4.42755,-9.0248c2.9517,-2.08779 7.24555,-3.13168 12.88155,-3.13168c5.38917,0 9.43619,0.84334 12.14106,2.53003c2.70487,1.68669 4.44812,4.47383 5.22976,8.36144l-8.82425,1.20331c-0.45253,-1.87181 -1.373,-3.28081 -2.76143,-4.227c-1.38843,-0.94619 -3.37851,-1.41928 -5.97025,-1.41928c-5.51258,0 -8.26888,1.72782 -8.26888,5.18347c0,1.13131 0.29311,2.05693 0.87934,2.77686c0.58623,0.71993 1.45528,1.33187 2.60716,1.83581c1.15188,0.50395 3.4865,1.13646 7.00386,1.89752c4.17558,0.88448 7.16327,1.70211 8.96309,2.45289c1.79982,0.75078 3.22424,1.62498 4.27328,2.62259c1.04904,0.99761 1.85124,2.19064 2.40661,3.57907c0.55537,1.38843 0.83306,2.9877 0.83306,4.7978z" data-paper-data="{&quot;glyphName&quot;:&quot;S&quot;,&quot;glyphIndex&quot;:0,&quot;firstGlyphOfWord&quot;:true,&quot;word&quot;:1,&quot;line&quot;:1,&quot;firstGlyphOfFirstLine&quot;:true}"></path><path d="M327.97257,229.31807c-5.98568,0 -10.5675,-1.46042 -13.74546,-4.38127c-3.17796,-2.92085 -4.76695,-7.09642 -4.76695,-12.52673v-27.18239h9.10194v26.47275c0,3.43508 0.81763,6.04225 2.45289,7.82149c1.63526,1.77925 4.03673,2.66887 7.20441,2.66887c3.24996,0 5.74913,-0.93076 7.49753,-2.79229c1.74839,-1.86153 2.62259,-4.5304 2.62259,-8.00662v-26.16421h9.10194v26.71958c0,5.51258 -1.70211,9.78587 -5.10634,12.81984c-3.40423,3.03398 -8.19174,4.55097 -14.36255,4.55097z" data-paper-data="{&quot;glyphName&quot;:&quot;U&quot;,&quot;glyphIndex&quot;:1,&quot;word&quot;:1,&quot;line&quot;:1}"></path><path d="M397.55866,216.17426c0,4.25785 -1.5787,7.51295 -4.73609,9.7653c-3.15739,2.25234 -7.79064,3.37851 -13.89973,3.37851c-5.57429,0 -9.94528,-0.98733 -13.11296,-2.96199c-3.16768,-1.97466 -5.20404,-4.9675 -6.1091,-8.97852l8.79339,-1.45014c0.59651,2.30377 1.75868,3.97503 3.4865,5.01378c1.72782,1.03875 4.12415,1.55813 7.18899,1.55813c6.35593,0 9.53389,-1.93352 9.53389,-5.80056c0,-1.23416 -0.36511,-2.25234 -1.09532,-3.05455c-0.73021,-0.8022 -1.75868,-1.47071 -3.0854,-2.00551c-1.32672,-0.5348 -3.87218,-1.18274 -7.63637,-1.9438c-3.24996,-0.76107 -5.51258,-1.373 -6.78788,-1.83581c-1.2753,-0.46281 -2.42718,-1.0079 -3.45565,-1.63526c-1.02847,-0.62737 -1.90266,-1.38329 -2.62259,-2.26777c-0.71993,-0.88448 -1.28044,-1.92323 -1.68154,-3.11626c-0.4011,-1.19302 -0.60165,-2.56088 -0.60165,-4.10358c0,-3.92874 1.47585,-6.93701 4.42755,-9.0248c2.9517,-2.08779 7.24555,-3.13168 12.88155,-3.13168c5.38917,0 9.43619,0.84334 12.14106,2.53003c2.70487,1.68669 4.44812,4.47383 5.22976,8.36144l-8.82425,1.20331c-0.45253,-1.87181 -1.373,-3.28081 -2.76143,-4.227c-1.38843,-0.94619 -3.37851,-1.41928 -5.97025,-1.41928c-5.51258,0 -8.26888,1.72782 -8.26888,5.18347c0,1.13131 0.29311,2.05693 0.87934,2.77686c0.58623,0.71993 1.45528,1.33187 2.60716,1.83581c1.15188,0.50395 3.4865,1.13646 7.00386,1.89752c4.17558,0.88448 7.16327,1.70211 8.96309,2.45289c1.79982,0.75078 3.22424,1.62498 4.27328,2.62259c1.04904,0.99761 1.85124,2.19064 2.40661,3.57907c0.55537,1.38843 0.83306,2.9877 0.83306,4.7978z" data-paper-data="{&quot;glyphName&quot;:&quot;S&quot;,&quot;glyphIndex&quot;:2,&quot;word&quot;:1,&quot;line&quot;:1}"></path><path d="M438.88248,228.70099v-18.63583h-18.94437v18.63583h-9.10194v-43.47331h9.10194v17.3091h18.94437v-17.3091h9.10194v43.47331z" data-paper-data="{&quot;glyphName&quot;:&quot;H&quot;,&quot;glyphIndex&quot;:3,&quot;word&quot;:1,&quot;line&quot;:1}"></path><path d="M463.05146,228.70099v-43.47331h9.10194v43.47331z" data-paper-data="{&quot;glyphName&quot;:&quot;I&quot;,&quot;glyphIndex&quot;:4,&quot;lastGlyphOfWord&quot;:true,&quot;word&quot;:1,&quot;line&quot;:1,&quot;lastGlyphOfFirstLine&quot;:true}"></path><path d="M281.89724,248.98166v36.43859h-9.10194v-36.43859h-14.03858v-7.03472h37.20994v7.03472z" data-paper-data="{&quot;glyphName&quot;:&quot;T&quot;,&quot;glyphIndex&quot;:5,&quot;firstGlyphOfWord&quot;:true,&quot;word&quot;:2,&quot;line&quot;:2,&quot;firstGlyphOfSecondLine&quot;:true}"></path><path d="M307.45465,285.42026v-43.47331h9.10194v43.47331z" data-paper-data="{&quot;glyphName&quot;:&quot;I&quot;,&quot;glyphIndex&quot;:6,&quot;word&quot;:2,&quot;line&quot;:2}"></path><path d="M367.69197,285.42026v-26.34933c0,-0.59651 0.00514,-1.19302 0.01543,-1.78953c0.01028,-0.59651 0.10799,-3.15739 0.29311,-7.68265c-1.46042,5.53315 -2.54031,9.38991 -3.23967,11.57026l-7.83692,24.25126h-6.47934l-7.83692,-24.25126l-3.30138,-11.57026c0.24683,4.77209 0.37025,7.92948 0.37025,9.47218v26.34933h-8.08375v-43.47331h12.18734l7.77521,24.31297l0.67879,2.34491l1.48099,5.83141l1.9438,-6.97301l7.99119,-25.51627h12.12563v43.47331z" data-paper-data="{&quot;glyphName&quot;:&quot;M&quot;,&quot;glyphIndex&quot;:7,&quot;word&quot;:2,&quot;line&quot;:2}"></path><path d="M390.81192,285.42026v-43.47331h34.18625v7.03472h-25.08432v10.92232h23.20222v7.03472h-23.20222v11.44684h26.34933v7.03472z" data-paper-data="{&quot;glyphName&quot;:&quot;E&quot;,&quot;glyphIndex&quot;:8,&quot;lastGlyphOfWord&quot;:true,&quot;word&quot;:2,&quot;line&quot;:2,&quot;lastGlyphOfSecondLine&quot;:true}"></path></g><g data-paper-data="{&quot;isIcon&quot;:&quot;true&quot;,&quot;iconType&quot;:&quot;icon&quot;,&quot;rawIconId&quot;:&quot;332ce55c-a052-4990-bc31-6914c2c4943a&quot;,&quot;isSvgStockIcon&quot;:true,&quot;selectedEffects&quot;:{&quot;container&quot;:&quot;&quot;,&quot;transformation&quot;:&quot;&quot;,&quot;pattern&quot;:&quot;&quot;},&quot;combineTerms&quot;:&quot;food,sushi&quot;,&quot;combineTermsExtended&quot;:{&quot;icon&quot;:[&quot;food&quot;,&quot;sushi&quot;]},&quot;isDetailed&quot;:false,&quot;fillRule&quot;:&quot;evenodd&quot;,&quot;bounds&quot;:{&quot;x&quot;:77.84660760480324,&quot;y&quot;:186.42848445036046,&quot;width&quot;:153.95309236418566,&quot;height&quot;:97.1438058829909},&quot;iconStyle&quot;:&quot;standalone&quot;,&quot;suitableAsStandaloneIcon&quot;:true}" fill-rule="evenodd"><g data-paper-data="{&quot;isPathIcon&quot;:true}"><path d="M220.76772,216.57342l-0.173,-0.121l-3.89899,5.08999c-9.88098,-7.56398 -21.21096,-12.53297 -33.27793,-14.67597c-9.09498,-2.78099 -18.61096,-4.27299 -28.34894,-4.40199l-0.124,-0.003h-0.241l-0.07,0.003c-13.30197,0.172 -26.17595,2.89599 -38.13192,7.94698l-3.17499,-4.15299c16.59397,-12.69597 36.44493,-19.54996 57.40089,-19.82996h0.253c20.95596,0.28 40.80892,7.13399 57.40189,19.82996l-3.89799,5.09499c0.636,0.435 1.254,0.917 1.868,1.489c3.46299,3.16499 5.44699,7.65598 5.44699,12.32598c0,7.51298 -4.97899,13.87497 -11.80998,15.97797c-0.491,-2.107 -1.29,-4.12799 -2.388,-5.99499c4.46599,-1.131 7.78698,-5.17099 7.78698,-9.98098c0,-2.91699 -1.195,-5.61399 -3.36799,-7.60198c-0.425,-0.393 -0.837,-0.715 -1.253,-0.995z"></path><path d="M195.53177,238.81038c-0.357,-0.231 -0.713,-0.459 -1.08,-0.684c-1.504,-0.931 -3.03399,-1.823 -4.58999,-2.64899c-7.04699,-3.74299 -14.60197,-6.36799 -22.47496,-7.76498c-9.09998,-2.78499 -18.61196,-4.27399 -28.34794,-4.40199l-0.128,-0.004l-0.121,-0.004l-0.117,0.004l-0.073,0.004c-7.58098,0.095 -15.01597,1.051 -22.22796,2.76699c-1.243,0.292 -2.481,0.62 -3.71299,0.951c-4.15299,1.158 -8.22198,2.55099 -12.18898,4.22799l-3.17889,-4.15599c4.51789,-3.44999 9.27888,-6.45399 14.23287,-9.03098c0.004,-0.004 0.008,-0.004 0.017,-0.004c3.30399,-1.722 6.69899,-3.23899 10.17098,-4.56099h0.008c1.687,-0.641 3.39099,-1.234 5.11499,-1.772c0.078,-0.025 0.155,-0.052 0.233,-0.078c1.734,-0.538 3.48099,-1.037 5.23499,-1.475c0.07,-0.017 0.138,-0.035 0.202,-0.046c1.596,-0.397 3.20499,-0.745 4.82399,-1.057c0.287,-0.061 0.571,-0.117 0.855,-0.168c1.7,-0.314 3.39899,-0.594 5.11399,-0.812c0.121,-0.017 0.245,-0.025 0.37,-0.043c1.545,-0.198 3.10299,-0.347 4.66399,-0.468c0.425,-0.035 0.851,-0.064 1.274,-0.089c1.691,-0.113 3.38199,-0.195 5.08599,-0.216l0.132,-0.01l0.128,0.004c20.95696,0.276 40.80392,7.13399 57.40289,19.82596l-3.89599,5.09499c0.635,0.435 1.251,0.921 1.867,1.488c0.603,0.552 1.149,1.163 1.66,1.794c0.004,0.004 0.008,0.004 0.008,0.004c0.379,0.468 0.727,0.95 1.049,1.45c0.01,0.007 0.014,0.015 0.023,0.025c0.323,0.497 0.614,1.007 0.877,1.535c0.01,0.008 0.013,0.021 0.023,0.035c0.263,0.529 0.5,1.067 0.709,1.623c0,0 0.004,0.011 0.008,0.021c0.696,1.854 1.087,3.82499 1.087,5.83799c0,7.51298 -4.97499,13.87697 -11.80598,15.97897c-0.492,-2.102 -1.296,-4.12899 -2.388,-5.99299c4.46699,-1.135 7.78498,-5.17499 7.78498,-9.98598c0,-1.45 -0.298,-2.83899 -0.857,-4.12199c-0.267,-0.598 -0.593,-1.166 -0.972,-1.708c-0.031,-0.047 -0.054,-0.099 -0.091,-0.146c-0.14,-0.194 -0.3,-0.377 -0.455,-0.567c-0.078,-0.092 -0.142,-0.191 -0.224,-0.276c-0.241,-0.272 -0.499,-0.533 -0.769,-0.778c-0.426,-0.392 -0.834,-0.719 -1.252,-0.998l-0.176,-0.121l-3.89899,5.08999c-0.223,-0.173 -0.46,-0.323 -0.688,-0.496c-1.455,-1.084 -2.93399,-2.103 -4.44599,-3.07599z"></path><path d="M77.84661,266.85032c0,9.21998 7.50299,16.72197 16.72197,16.72197h88.44822c9.22098,0 16.72397,-7.50199 16.72397,-16.72197c0,-2.01 -0.392,-3.98399 -1.092,-5.83799l-0.006,-0.023c-0.21,-0.554 -0.445,-1.093 -0.713,-1.621c-0.004,-0.014 -0.013,-0.023 -0.017,-0.035c-0.269,-0.527 -0.56,-1.038 -0.883,-1.533c-0.007,-0.012 -0.013,-0.018 -0.017,-0.03c-0.327,-0.499 -0.671,-0.981 -1.049,-1.441c0,0 -0.004,-0.014 -0.008,-0.014c-0.513,-0.632 -1.059,-1.24 -1.666,-1.794c-0.614,-0.563 -1.23,-1.049 -1.863,-1.484l3.89399,-5.09399c-16.59597,-12.69297 -36.44393,-19.55096 -57.40289,-19.82696h-0.252c-1.705,0.025 -3.39899,0.107 -5.08599,0.216c-0.425,0.025 -0.847,0.056 -1.273,0.089c-1.562,0.124 -3.11899,0.276 -4.66399,0.468c-0.124,0.014 -0.248,0.026 -0.369,0.043c-1.716,0.224 -3.41999,0.498 -5.11499,0.812c-0.283,0.057 -0.571,0.109 -0.857,0.164c-1.616,0.318 -3.23099,0.666 -4.82699,1.063c-0.064,0.017 -0.128,0.035 -0.194,0.046c-1.765,0.439 -3.50599,0.937 -5.23499,1.475c-0.082,0.025 -0.16,0.057 -0.241,0.078c-1.722,0.542 -3.42399,1.133 -5.11099,1.774c-0.004,0 -0.004,0 -0.008,0.004c-3.47299,1.318 -6.86549,2.83499 -10.17488,4.55499c-0.0078,0 -0.0078,0.006 -0.0136,0.006c-4.95539,2.57699 -9.71838,5.57899 -14.23267,9.03398l3.89829,5.09399c-0.6374,0.429 -1.2476,0.921 -1.8675,1.484c-3.46099,3.16999 -5.44899,7.66498 -5.44899,12.32898zM94.56857,277.1573c-5.68219,0 -10.31108,-4.62499 -10.31108,-10.30698c0,-2.91299 1.201,-5.61099 3.36769,-7.59898c0.4256,-0.394 0.8395,-0.721 1.2554,-0.999l0.173,-0.12l3.89819,5.09299c2.1765,-1.663 4.42289,-3.18899 6.73349,-4.59799c0.9757,-0.594 1.9567,-1.171 2.95569,-1.721c0.056,-0.035 0.117,-0.068 0.177,-0.099c1.014,-0.564 2.042,-1.102 3.08399,-1.613c10.16098,-4.99099 21.30796,-7.66698 32.88593,-7.84298c12.42198,0.188 24.33995,3.25999 35.07993,8.96398c0.846,0.451 1.679,0.917 2.50499,1.395c0.035,0.022 0.072,0.043 0.109,0.06c0.847,0.494 1.685,1.007 2.51699,1.536c0.007,0.004 0.013,0.007 0.017,0.007c1.681,1.073 3.33099,2.214 4.93999,3.41899c0.221,0.163 0.455,0.322 0.674,0.493l3.89899,-5.09299l0.176,0.124c0.418,0.276 0.828,0.599 1.254,0.993c0.276,0.251 0.528,0.509 0.769,0.78c0.078,0.089 0.146,0.184 0.224,0.279c0.153,0.187 0.313,0.37 0.455,0.568c0.035,0.043 0.056,0.101 0.091,0.142c0.377,0.546 0.705,1.109 0.968,1.714c0.563,1.276 0.859,2.66999 0.859,4.11599c0,5.68399 -4.62499,10.30898 -10.30998,10.30898z"></path></g></g></g></g><g class="watermark-group" style="opacity:0.040000010281801224"><path class="watermark-path" d="M129.52,370.3a11.88,11.88,0,0,1,2.58,5.58,12,12,0,0,1,.11,3,11.81,11.81,0,0,1-.64,2.93,12.34,12.34,0,0,1-1.41,2.72,11.65,11.65,0,0,1-2.13,2.32,12,12,0,0,1-2.64,1.69,13,13,0,0,1-2.91.9,12.47,12.47,0,0,1-3,.12,12.17,12.17,0,0,1-2.93-.64,11.8,11.8,0,0,1-2.72-1.38,12.19,12.19,0,0,1-4-4.79,11.85,11.85,0,0,1-.89-2.92,12.14,12.14,0,0,1-.13-3,11.54,11.54,0,0,1,.64-2.92,11.67,11.67,0,0,1,3.5-5,11.44,11.44,0,0,1,2.67-1.69,11.64,11.64,0,0,1,2.92-.91,10.71,10.71,0,0,1,3-.12,11.68,11.68,0,0,1,5.66,2,11.7,11.7,0,0,1,2.34,2.12m-1.4,8.76a13,13,0,0,1-1.22,2.32,9.68,9.68,0,0,1-1.81,2,7.44,7.44,0,0,1-2.38,1.37,6.17,6.17,0,0,1-5.11-.46,8.73,8.73,0,0,1-3.85-4.58,6.69,6.69,0,0,1-.34-2.66,6.09,6.09,0,0,1,.77-2.47,7.15,7.15,0,0,1,1.75-2.11,9.58,9.58,0,0,1,1.09-.81,8.23,8.23,0,0,1,1.12-.63,8.14,8.14,0,0,1,1.19-.46,12.71,12.71,0,0,1,1.32-.37l2,2.38a12.83,12.83,0,0,0-1.56.17,7.86,7.86,0,0,0-1.23.32,4.5,4.5,0,0,0-1,.49,6.41,6.41,0,0,0-.93.67,4.49,4.49,0,0,0-1.15,1.39,3.87,3.87,0,0,0-.45,1.58,4.12,4.12,0,0,0,.26,1.63,6.11,6.11,0,0,0,2.36,2.82,4.43,4.43,0,0,0,1.57.53,3.91,3.91,0,0,0,1.62-.17,4.71,4.71,0,0,0,1.57-.89,10.5,10.5,0,0,0,.83-.79,5.71,5.71,0,0,0,.65-.93,10.13,10.13,0,0,0,.54-1.14,12.24,12.24,0,0,0,.44-1.49l2,2.33m-14.46,4.55a8.86,8.86,0,0,0,2.78,2.22,9,9,0,0,0,3.29.94,9.15,9.15,0,0,0,3.39-.37,8.68,8.68,0,0,0,3.11-1.69,8.8,8.8,0,0,0,2.22-2.78,9.15,9.15,0,0,0,1-3.29,8.95,8.95,0,0,0-4.83-8.76,9,9,0,0,0-6.73-.57,9,9,0,0,0-5.33,4.47,8.94,8.94,0,0,0-.57,6.71,8.76,8.76,0,0,0,1.7,3.12"></path><path class="watermark-path" d="M147,349c-.48.12-1.09.31-1.82.57a24.37,24.37,0,0,0-2.4,1A28.35,28.35,0,0,0,140,352a20.72,20.72,0,0,0-2.71,1.94c-.7.59-1.28,1.11-1.74,1.57a15.07,15.07,0,0,0-1.1,1.22,4.09,4.09,0,0,0-.59.92,2.32,2.32,0,0,0-.22.64,1.16,1.16,0,0,0,0,.47,1.83,1.83,0,0,0,.18.29,1.15,1.15,0,0,0,1,.37,5.54,5.54,0,0,0,1.51-.38q.87-.35,1.95-.9l2.26-1.18q1.2-.65,2.49-1.29c.87-.44,1.73-.83,2.59-1.17a18.94,18.94,0,0,1,2.6-.81,9.27,9.27,0,0,1,2.46-.29,6.25,6.25,0,0,1,2.24.49,5.12,5.12,0,0,1,1.89,1.47,6.35,6.35,0,0,1,1.41,2.61,6,6,0,0,1,.09,2.6,8.3,8.3,0,0,1-.9,2.52,17.79,17.79,0,0,1-1.62,2.37,23.92,23.92,0,0,1-2,2.15c-.72.67-1.41,1.29-2.09,1.87a33.79,33.79,0,0,1-5.33,3.7,32.29,32.29,0,0,1-4.91,2.28l-3.61-4.3a21.38,21.38,0,0,0,5.39-1.87,27.2,27.2,0,0,0,5.4-3.56,21.59,21.59,0,0,0,2.38-2.27,8.67,8.67,0,0,0,1.18-1.7,2.32,2.32,0,0,0,.27-1.19,1.34,1.34,0,0,0-.28-.74,1.21,1.21,0,0,0-1-.42,4.32,4.32,0,0,0-1.55.34,15.77,15.77,0,0,0-2,.88c-.72.37-1.48.77-2.27,1.21l-2.45,1.3c-.85.45-1.7.85-2.56,1.21a22.37,22.37,0,0,1-2.54.86,10,10,0,0,1-2.43.32,5.76,5.76,0,0,1-2.2-.45,5,5,0,0,1-1.89-1.45,6.12,6.12,0,0,1-1.31-2.41,6,6,0,0,1-.1-2.41,8.28,8.28,0,0,1,.81-2.38,14.06,14.06,0,0,1,1.49-2.24,22.37,22.37,0,0,1,1.85-2.05q1-1,2-1.77c.7-.59,1.44-1.15,2.23-1.7s1.62-1.06,2.44-1.53,1.63-.91,2.43-1.3,1.58-.75,2.3-1L147,349"></path><path class="watermark-path" d="M186.76,337.57l-10.6-12.63,3.92,18.24-4.66,3.91-17.27-7,10.6,12.63-4.86,4.07-15.09-18,6.59-5.54,18.69,7.52-4.15-19.71,6.57-5.52,15.09,18-4.83,4.05"></path><path class="watermark-path" d="M208.84,313.24l-10,8.42,1.16,4.82L194.56,331l-5.68-25.89,5.42-4.55,24.51,10.09-5.42,4.55-4.55-2m-11.23,3.45,6.57-5.52-8.83-3.87,2.26,9.39"></path><path class="watermark-path" d="M227.49,281.38c-.48.12-1.09.31-1.82.57a24.37,24.37,0,0,0-2.4,1,26.11,26.11,0,0,0-2.7,1.47,20.72,20.72,0,0,0-2.71,1.94c-.7.59-1.28,1.11-1.74,1.57a13.39,13.39,0,0,0-1.1,1.22,4.29,4.29,0,0,0-.59.91,2.48,2.48,0,0,0-.22.65,1.16,1.16,0,0,0,0,.47,1.83,1.83,0,0,0,.18.29,1.15,1.15,0,0,0,1,.37,5.54,5.54,0,0,0,1.51-.38q.87-.34,2-.9l2.26-1.18q1.2-.64,2.49-1.29c.87-.44,1.73-.83,2.59-1.17a18.94,18.94,0,0,1,2.6-.81,9.27,9.27,0,0,1,2.46-.29,6.08,6.08,0,0,1,2.24.49,5.09,5.09,0,0,1,1.89,1.46,6.47,6.47,0,0,1,1.41,2.61,6.07,6.07,0,0,1,.09,2.61,8.3,8.3,0,0,1-.9,2.52,16.32,16.32,0,0,1-1.63,2.36,21.41,21.41,0,0,1-2,2.16c-.72.67-1.41,1.29-2.1,1.86a33.36,33.36,0,0,1-5.32,3.71,31.92,31.92,0,0,1-4.92,2.28l-3.6-4.3a21.38,21.38,0,0,0,5.39-1.87,27.2,27.2,0,0,0,5.4-3.56,21.59,21.59,0,0,0,2.38-2.27,8.67,8.67,0,0,0,1.18-1.7A2.32,2.32,0,0,0,231,293a1.34,1.34,0,0,0-.28-.74,1.21,1.21,0,0,0-1-.42,4.32,4.32,0,0,0-1.55.34,16.54,16.54,0,0,0-2,.88c-.71.37-1.47.77-2.26,1.21l-2.46,1.3c-.84.44-1.7.85-2.55,1.21a24.53,24.53,0,0,1-2.54.86A10,10,0,0,1,214,298a5.76,5.76,0,0,1-2.2-.45,5,5,0,0,1-1.89-1.45,6.12,6.12,0,0,1-1.31-2.41,5.78,5.78,0,0,1-.1-2.41,8,8,0,0,1,.81-2.38,14.61,14.61,0,0,1,1.49-2.25,22.26,22.26,0,0,1,1.85-2q1-1,2-1.77c.7-.59,1.44-1.15,2.23-1.7s1.62-1.06,2.44-1.53,1.63-.91,2.43-1.31,1.58-.74,2.3-1l3.5,4.16"></path><path class="watermark-path" d="M261.64,274.74l-6.29-7.5L243,277.61l6.3,7.5-4.86,4.07-15.09-18,4.85-4.08,5.49,6.55L252,263.3l-5.49-6.55,4.86-4.07,15.09,18-4.86,4.08"></path><path class="watermark-path" d="M272.18,265.9l-15.09-18,4.86-4.08,15.09,18-4.86,4.08"></path><path class="watermark-path" d="M299.65,242.85l-22.51-2.18L287.51,253l-4.85,4.08-15.1-18,5.28-4.43,22.56,2.22L285,224.5l4.83-4.06,15.09,18-5.26,4.42"></path><path class="watermark-path" d="M306.68,205.52a31.88,31.88,0,0,1,5.29-3.66,34.48,34.48,0,0,1,5.14-2.35l3.69,4.39a20.77,20.77,0,0,0-2.37.61,20.47,20.47,0,0,0-2.61,1,25.12,25.12,0,0,0-2.76,1.49,23.9,23.9,0,0,0-2.8,2,20.42,20.42,0,0,0-2.8,2.77,12.77,12.77,0,0,0-1.64,2.52,7,7,0,0,0-.68,2.24,6,6,0,0,0,.66,3.64,8.16,8.16,0,0,0,.94,1.38,9.12,9.12,0,0,0,1.08,1.07,6.39,6.39,0,0,0,1.47.91,6.73,6.73,0,0,0,1.88.48,6.54,6.54,0,0,0,2.28-.18,11.67,11.67,0,0,0,2.74-1.07,19.38,19.38,0,0,0,3.18-2.22c.57-.48,1.06-.92,1.46-1.31a14.57,14.57,0,0,0,1-1.13,11.46,11.46,0,0,0,.81-1.05l.74-1.09-1.82-2.17-5.45,4.57-3.31-3.94,10.31-8.65,7.71,9.19a29,29,0,0,1-1.67,2.43q-1,1.26-2.1,2.52c-.74.84-1.5,1.65-2.3,2.44s-1.58,1.5-2.33,2.14a31,31,0,0,1-3.59,2.61,22.55,22.55,0,0,1-3.64,1.83,15.64,15.64,0,0,1-3.63.89,10.72,10.72,0,0,1-3.49-.15,10.45,10.45,0,0,1-3.28-1.33,12.54,12.54,0,0,1-3-2.67,12,12,0,0,1-2.08-3.44,10.45,10.45,0,0,1-.71-3.5,11.14,11.14,0,0,1,.51-3.51,15.72,15.72,0,0,1,1.56-3.43,21.62,21.62,0,0,1,2.42-3.28,30.3,30.3,0,0,1,3.15-3"></path><path class="watermark-path" d="M336.91,211.59l-15.1-18,4.86-4.08,11.79,14,13.13-11,3.31,3.94-18,15.1"></path><path class="watermark-path" d="M374.54,164.71a12.28,12.28,0,0,1,2.59,4.81,10.44,10.44,0,0,1,0,5,14.62,14.62,0,0,1-2.33,5,25.55,25.55,0,0,1-4.56,4.85,26.07,26.07,0,0,1-5.6,3.67,14.79,14.79,0,0,1-5.38,1.43,10.43,10.43,0,0,1-4.94-.89,13.24,13.24,0,0,1-6.87-8.18,10.48,10.48,0,0,1,0-5,14.51,14.51,0,0,1,2.36-5,25.23,25.23,0,0,1,4.57-4.89,25,25,0,0,1,5.59-3.64,14.45,14.45,0,0,1,5.35-1.43,10.31,10.31,0,0,1,4.93.92,12.22,12.22,0,0,1,4.28,3.38m-4.91,4.11a8.36,8.36,0,0,0-2-1.72,5.5,5.5,0,0,0-2.65-.85,7.72,7.72,0,0,0-3.32.57,14.49,14.49,0,0,0-4,2.52,16.72,16.72,0,0,0-2.38,2.4,10.15,10.15,0,0,0-1.39,2.24,6.71,6.71,0,0,0-.56,2.1,5.69,5.69,0,0,0,.1,1.9,6.21,6.21,0,0,0,.61,1.69,9.85,9.85,0,0,0,1,1.44,10.48,10.48,0,0,0,1.26,1.23,6.67,6.67,0,0,0,1.57.92,6.1,6.1,0,0,0,1.85.41,6.8,6.8,0,0,0,2.15-.2,11.06,11.06,0,0,0,2.45-1,17.67,17.67,0,0,0,2.77-1.94,14.39,14.39,0,0,0,3.18-3.52,7.74,7.74,0,0,0,1.14-3.17,5.54,5.54,0,0,0-.37-2.74,8.52,8.52,0,0,0-1.36-2.3"></path><path class="watermark-path" d="M382.66,141.76A32.3,32.3,0,0,1,388,138.1a34.12,34.12,0,0,1,5.15-2.35l3.69,4.4a19.62,19.62,0,0,0-2.37.6,22.08,22.08,0,0,0-2.61,1,26,26,0,0,0-2.77,1.49,23.9,23.9,0,0,0-2.8,2,21,21,0,0,0-2.8,2.78,13.19,13.19,0,0,0-1.64,2.51,7.29,7.29,0,0,0-.68,2.24,6.36,6.36,0,0,0,.06,2,5.8,5.8,0,0,0,.61,1.68,8.12,8.12,0,0,0,.93,1.38,9.16,9.16,0,0,0,1.08,1.08,6.56,6.56,0,0,0,1.48.9,6,6,0,0,0,1.87.48,6.76,6.76,0,0,0,2.28-.17,12,12,0,0,0,2.74-1.08,18.57,18.57,0,0,0,3.18-2.22c.58-.48,1.06-.92,1.46-1.31s.75-.77,1.05-1.12.57-.72.81-1.06l.73-1.09-1.82-2.17-5.45,4.57-3.3-3.94,10.3-8.65,7.71,9.19a29,29,0,0,1-1.67,2.43q-1,1.26-2.1,2.52c-.73.84-1.5,1.66-2.3,2.44s-1.57,1.5-2.33,2.14a31,31,0,0,1-3.59,2.61,22.15,22.15,0,0,1-3.64,1.83,15.56,15.56,0,0,1-3.62.89,11,11,0,0,1-3.49-.14,10.84,10.84,0,0,1-3.28-1.33,12.82,12.82,0,0,1-3-2.68,12.12,12.12,0,0,1-2.08-3.43A10.71,10.71,0,0,1,375,155a11.18,11.18,0,0,1,.51-3.51,15.51,15.51,0,0,1,1.57-3.43,21.44,21.44,0,0,1,2.42-3.28,30.19,30.19,0,0,1,3.14-3"></path><path class="watermark-path" d="M428.63,119.31a12.26,12.26,0,0,1,2.59,4.82,10.44,10.44,0,0,1,0,5,14.53,14.53,0,0,1-2.34,5,25.29,25.29,0,0,1-4.56,4.86,26,26,0,0,1-5.59,3.67,14.84,14.84,0,0,1-5.38,1.43,10.61,10.61,0,0,1-4.95-.89,12.15,12.15,0,0,1-4.3-3.37,12,12,0,0,1-2.56-4.81,10.48,10.48,0,0,1,0-5,14.39,14.39,0,0,1,2.35-5,27.89,27.89,0,0,1,10.16-8.53,14.49,14.49,0,0,1,5.36-1.43,10.27,10.27,0,0,1,4.92.92,12.21,12.21,0,0,1,4.28,3.37m-4.91,4.12a8.17,8.17,0,0,0-2-1.72,5.58,5.58,0,0,0-2.65-.86,7.86,7.86,0,0,0-3.31.58,14.49,14.49,0,0,0-4,2.52,16.21,16.21,0,0,0-2.38,2.4,9.85,9.85,0,0,0-1.4,2.24,7,7,0,0,0-.56,2.1,6,6,0,0,0,.1,1.9,6.23,6.23,0,0,0,.62,1.69,8.49,8.49,0,0,0,1,1.44,9.18,9.18,0,0,0,1.26,1.23,6.67,6.67,0,0,0,1.57.92,6,6,0,0,0,1.84.41,6.86,6.86,0,0,0,2.16-.2,11.26,11.26,0,0,0,2.45-1,17.62,17.62,0,0,0,2.76-1.94,14.67,14.67,0,0,0,3.19-3.52,7.71,7.71,0,0,0,1.13-3.17,5.53,5.53,0,0,0-.36-2.74,8.55,8.55,0,0,0-1.37-2.3"></path></g></svg>